<?xml version="1.0" encoding="UTF-8" standalone="no"?><svg xmlns="http://www.w3.org/2000/svg" xmlns:xlink="http://www.w3.org/1999/xlink" contentScriptType="application/ecmascript" contentStyleType="text/css" height="269px" preserveAspectRatio="none" style="width:109px;height:269px;" version="1.1" viewBox="0 0 109 269" width="109px" zoomAndPan="magnify"><defs><filter height="300%" id="f168gvvsvfud9c" width="300%" x="-1" y="-1"><feGaussianBlur result="blurOut" stdDeviation="2.0"/><feColorMatrix in="blurOut" result="blurOut2" type="matrix" values="0 0 0 0 0 0 0 0 0 0 0 0 0 0 0 0 0 0 .4 0"/><feOffset dx="4.0" dy="4.0" in="blurOut2" result="blurOut3"/><feBlend in="SourceGraphic" in2="blurOut3" mode="normal"/></filter></defs><g><!--entity if1--><ellipse cx="52" cy="133" fill="#FEFECE" filter="url(#f168gvvsvfud9c)" rx="8" ry="8" style="stroke: #A80036; stroke-width: 2.0;"/><text fill="#000000" font-family="sans-serif" font-size="14" lengthAdjust="spacingAndGlyphs" textLength="16" x="44" y="162.9951">if1</text><!--entity Consumer--><rect fill="#FEFECE" filter="url(#f168gvvsvfud9c)" height="36.2969" style="stroke: #A80036; stroke-width: 1.5;" width="92" x="6" y="222"/><rect fill="#FEFECE" height="5" style="stroke: #A80036; stroke-width: 1.5;" width="10" x="1" y="227"/><rect fill="#FEFECE" height="5" style="stroke: #A80036; stroke-width: 1.5;" width="10" x="1" y="248.2969"/><text fill="#000000" font-family="sans-serif" font-size="14" lengthAdjust="spacingAndGlyphs" textLength="72" x="16" y="244.9951">Consumer</text><!--entity Producer--><rect fill="#FEFECE" filter="url(#f168gvvsvfud9c)" height="36.2969" style="stroke: #A80036; stroke-width: 1.5;" width="83" x="10.5" y="8"/><rect fill="#FEFECE" height="5" style="stroke: #A80036; stroke-width: 1.5;" width="10" x="5.5" y="13"/><rect fill="#FEFECE" height="5" style="stroke: #A80036; stroke-width: 1.5;" width="10" x="5.5" y="34.2969"/><text fill="#000000" font-family="sans-serif" font-size="14" lengthAdjust="spacingAndGlyphs" textLength="63" x="20.5" y="30.9951">Producer</text><!--link if1 to Consumer--><path d="M52,142.239 C52,158.15 52,193.5859 52,216.8717 " fill="none" id="if1-Consumer" style="stroke: #A80036; stroke-width: 1.0;"/><polygon fill="#A80036" points="52,221.9328,56,212.9328,52,216.9328,48,212.9328,52,221.9328" style="stroke: #A80036; stroke-width: 1.0;"/><!--link Producer to if1--><path d="M52,44.339 C52,65.137 52,99.56 52,118.49 " fill="none" id="Producer-if1" style="stroke: #A80036; stroke-width: 1.0;"/><polygon fill="#A80036" points="52,123.835,56,114.835,52,118.835,48,114.835,52,123.835" style="stroke: #A80036; stroke-width: 1.0;"/><!--
@startuml
  interface if1
  if1 - -> [Consumer]
  [Producer] - -> if1
@enduml

PlantUML version 1.2019.05(Sat Apr 20 16:45:36 UTC 2019)
(GPL source distribution)
Java Runtime: OpenJDK Runtime Environment
JVM: OpenJDK 64-Bit Server VM
Java Version: 11.0.2+9
Operating System: Linux
OS Version: 4.15.0-1028-gcp
Default Encoding: UTF-8
Language: en
Country: US
--></g></svg>