<?xml version="1.0" encoding="UTF-8" standalone="no"?><svg xmlns="http://www.w3.org/2000/svg" xmlns:xlink="http://www.w3.org/1999/xlink" contentScriptType="application/ecmascript" contentStyleType="text/css" height="1066px" preserveAspectRatio="none" style="width:951px;height:1066px;" version="1.1" viewBox="0 0 951 1066" width="951px" zoomAndPan="magnify"><defs/><g><!--cluster Scrum Team--><polygon fill="#FFFFFF" points="570,75.5,674,75.5,681,97.7969,929,97.7969,929,517.5,570,517.5,570,75.5" style="stroke: #000000; stroke-width: 1.5;"/><line style="stroke: #000000; stroke-width: 1.5;" x1="570" x2="681" y1="97.7969" y2="97.7969"/><text fill="#000000" font-family="sans-serif" font-size="14" font-weight="bold" lengthAdjust="spacingAndGlyphs" textLength="98" x="574" y="90.4951">Scrum Team</text><!--cluster Increment 1..m--><polygon fill="#FFFFFF" points="22,24,147,24,154,46.2969,546,46.2969,546,1054,22,1054,22,24" style="stroke: #000000; stroke-width: 1.5;"/><line style="stroke: #000000; stroke-width: 1.5;" x1="22" x2="154" y1="46.2969" y2="46.2969"/><text fill="#000000" font-family="sans-serif" font-size="14" font-weight="bold" lengthAdjust="spacingAndGlyphs" textLength="119" x="26" y="38.9951">Increment 1..m</text><!--cluster User Story 1..n--><polygon fill="#FFFFFF" points="46,67,171,67,178,89.2969,522,89.2969,522,1030,46,1030,46,67" style="stroke: #000000; stroke-width: 1.5;"/><line style="stroke: #000000; stroke-width: 1.5;" x1="46" x2="178" y1="89.2969" y2="89.2969"/><text fill="#000000" font-family="sans-serif" font-size="14" font-weight="bold" lengthAdjust="spacingAndGlyphs" textLength="119" x="50" y="81.9951">User Story 1..n</text><!--entity Developer 1--><ellipse cx="628" cy="120.5" fill="#FEFECE" rx="8" ry="8" style="stroke: #A80036; stroke-width: 2.0;"/><path d="M628,128.5 L628,155.5 M615,136.5 L641,136.5 M628,155.5 L615,170.5 M628,155.5 L641,170.5 " fill="none" style="stroke: #A80036; stroke-width: 2.0;"/><text fill="#000000" font-family="sans-serif" font-size="14" lengthAdjust="spacingAndGlyphs" textLength="84" x="586" y="186.4951">Developer 1</text><!--entity Developer 2--><ellipse cx="747" cy="120.5" fill="#FEFECE" rx="8" ry="8" style="stroke: #A80036; stroke-width: 2.0;"/><path d="M747,128.5 L747,155.5 M734,136.5 L760,136.5 M747,155.5 L734,170.5 M747,155.5 L760,170.5 " fill="none" style="stroke: #A80036; stroke-width: 2.0;"/><text fill="#000000" font-family="sans-serif" font-size="14" lengthAdjust="spacingAndGlyphs" textLength="84" x="705" y="186.4951">Developer 2</text><!--entity Developer 3--><ellipse cx="866" cy="120.5" fill="#FEFECE" rx="8" ry="8" style="stroke: #A80036; stroke-width: 2.0;"/><path d="M866,128.5 L866,155.5 M853,136.5 L879,136.5 M866,155.5 L853,170.5 M866,155.5 L879,170.5 " fill="none" style="stroke: #A80036; stroke-width: 2.0;"/><text fill="#000000" font-family="sans-serif" font-size="14" lengthAdjust="spacingAndGlyphs" textLength="84" x="824" y="186.4951">Developer 3</text><!--entity Architect--><ellipse cx="617" cy="276.5" fill="#FEFECE" rx="8" ry="8" style="stroke: #A80036; stroke-width: 2.0;"/><path d="M617,284.5 L617,311.5 M604,292.5 L630,292.5 M617,311.5 L604,326.5 M617,311.5 L630,326.5 " fill="none" style="stroke: #A80036; stroke-width: 2.0;"/><text fill="#000000" font-family="sans-serif" font-size="14" lengthAdjust="spacingAndGlyphs" textLength="61" x="586.5" y="342.4951">Architect</text><!--entity Test Engineer--><ellipse cx="731" cy="276.5" fill="#FEFECE" rx="8" ry="8" style="stroke: #A80036; stroke-width: 2.0;"/><path d="M731,284.5 L731,311.5 M718,292.5 L744,292.5 M731,311.5 L718,326.5 M731,311.5 L744,326.5 " fill="none" style="stroke: #A80036; stroke-width: 2.0;"/><text fill="#000000" font-family="sans-serif" font-size="14" lengthAdjust="spacingAndGlyphs" textLength="97" x="682.5" y="342.4951">Test Engineer</text><!--entity Req. Engineer--><ellipse cx="864" cy="276.5" fill="#FEFECE" rx="8" ry="8" style="stroke: #A80036; stroke-width: 2.0;"/><path d="M864,284.5 L864,311.5 M851,292.5 L877,292.5 M864,311.5 L851,326.5 M864,311.5 L877,326.5 " fill="none" style="stroke: #A80036; stroke-width: 2.0;"/><text fill="#000000" font-family="sans-serif" font-size="14" lengthAdjust="spacingAndGlyphs" textLength="98" x="815" y="342.4951">Req. Engineer</text><!--entity Quality Assistance--><ellipse cx="649" cy="432.5" fill="#FEFECE" rx="8" ry="8" style="stroke: #A80036; stroke-width: 2.0;"/><path d="M649,440.5 L649,467.5 M636,448.5 L662,448.5 M649,467.5 L636,482.5 M649,467.5 L662,482.5 " fill="none" style="stroke: #A80036; stroke-width: 2.0;"/><text fill="#000000" font-family="sans-serif" font-size="14" lengthAdjust="spacingAndGlyphs" textLength="125" x="586.5" y="498.4951">Quality Assistance</text><!--entity SWDEV--><ellipse cx="124" cy="596.2969" fill="#FEFECE" rx="8" ry="8" style="stroke: #A80036; stroke-width: 2.0;"/><path d="M124,604.2969 L124,631.2969 M111,612.2969 L137,612.2969 M124,631.2969 L111,646.2969 M124,631.2969 L137,646.2969 " fill="none" style="stroke: #A80036; stroke-width: 2.0;"/><text fill="#000000" font-family="sans-serif" font-size="14" lengthAdjust="spacingAndGlyphs" textLength="51" x="98.5" y="662.292">SWDEV</text><text fill="#000000" font-family="sans-serif" font-size="14" font-style="italic" lengthAdjust="spacingAndGlyphs" textLength="49" x="99.5" y="582.9951">«Role»</text><!--entity SWTE--><ellipse cx="125" cy="848.2969" fill="#FEFECE" rx="8" ry="8" style="stroke: #A80036; stroke-width: 2.0;"/><path d="M125,856.2969 L125,883.2969 M112,864.2969 L138,864.2969 M125,883.2969 L112,898.2969 M125,883.2969 L138,898.2969 " fill="none" style="stroke: #A80036; stroke-width: 2.0;"/><text fill="#000000" font-family="sans-serif" font-size="14" lengthAdjust="spacingAndGlyphs" textLength="40" x="105" y="914.292">SWTE</text><text fill="#000000" font-family="sans-serif" font-size="14" font-style="italic" lengthAdjust="spacingAndGlyphs" textLength="49" x="100.5" y="834.9951">«Role»</text><!--entity SWARC--><ellipse cx="124" cy="440.2969" fill="#FEFECE" rx="8" ry="8" style="stroke: #A80036; stroke-width: 2.0;"/><path d="M124,448.2969 L124,475.2969 M111,456.2969 L137,456.2969 M124,475.2969 L111,490.2969 M124,475.2969 L137,490.2969 " fill="none" style="stroke: #A80036; stroke-width: 2.0;"/><text fill="#000000" font-family="sans-serif" font-size="14" lengthAdjust="spacingAndGlyphs" textLength="51" x="98.5" y="506.292">SWARC</text><text fill="#000000" font-family="sans-serif" font-size="14" font-style="italic" lengthAdjust="spacingAndGlyphs" textLength="49" x="99.5" y="426.9951">«Role»</text><!--entity SWRE--><ellipse cx="125" cy="284.2969" fill="#FEFECE" rx="8" ry="8" style="stroke: #A80036; stroke-width: 2.0;"/><path d="M125,292.2969 L125,319.2969 M112,300.2969 L138,300.2969 M125,319.2969 L112,334.2969 M125,319.2969 L138,334.2969 " fill="none" style="stroke: #A80036; stroke-width: 2.0;"/><text fill="#000000" font-family="sans-serif" font-size="14" lengthAdjust="spacingAndGlyphs" textLength="41" x="104.5" y="350.292">SWRE</text><text fill="#000000" font-family="sans-serif" font-size="14" font-style="italic" lengthAdjust="spacingAndGlyphs" textLength="49" x="100.5" y="270.9951">«Role»</text><!--entity SWQA--><ellipse cx="87" cy="128.2969" fill="#FEFECE" rx="8" ry="8" style="stroke: #A80036; stroke-width: 2.0;"/><path d="M87,136.2969 L87,163.2969 M74,144.2969 L100,144.2969 M87,163.2969 L74,178.2969 M87,163.2969 L100,178.2969 " fill="none" style="stroke: #A80036; stroke-width: 2.0;"/><text fill="#000000" font-family="sans-serif" font-size="14" lengthAdjust="spacingAndGlyphs" textLength="42" x="66" y="194.292">SWQA</text><text fill="#000000" font-family="sans-serif" font-size="14" font-style="italic" lengthAdjust="spacingAndGlyphs" textLength="49" x="62.5" y="114.9951">«Role»</text><!--entity Scrum Team--><rect fill="#FEFECE" height="36.2969" style="stroke: #A80036; stroke-width: 1.5;" width="107" x="146.5" y="132"/><rect fill="#FEFECE" height="5" style="stroke: #A80036; stroke-width: 1.5;" width="10" x="141.5" y="137"/><rect fill="#FEFECE" height="5" style="stroke: #A80036; stroke-width: 1.5;" width="10" x="141.5" y="158.2969"/><text fill="#000000" font-family="sans-serif" font-size="14" lengthAdjust="spacingAndGlyphs" textLength="87" x="156.5" y="154.9951">Scrum Team</text><!--entity MAN.3--><rect fill="#FEFECE" height="36.2969" style="stroke: #A80036; stroke-width: 1.5;" width="64" x="289" y="132"/><rect fill="#FEFECE" height="5" style="stroke: #A80036; stroke-width: 1.5;" width="10" x="284" y="137"/><rect fill="#FEFECE" height="5" style="stroke: #A80036; stroke-width: 1.5;" width="10" x="284" y="158.2969"/><text fill="#000000" font-family="sans-serif" font-size="14" lengthAdjust="spacingAndGlyphs" textLength="44" x="299" y="154.9951">MAN.3</text><!--entity SWE.1--><rect fill="#FEFECE" height="36.2969" style="stroke: #A80036; stroke-width: 1.5;" width="64" x="185" y="288"/><rect fill="#FEFECE" height="5" style="stroke: #A80036; stroke-width: 1.5;" width="10" x="180" y="293"/><rect fill="#FEFECE" height="5" style="stroke: #A80036; stroke-width: 1.5;" width="10" x="180" y="314.2969"/><text fill="#000000" font-family="sans-serif" font-size="14" lengthAdjust="spacingAndGlyphs" textLength="44" x="195" y="310.9951">SWE.1</text><!--entity SWE.2--><rect fill="#FEFECE" height="36.2969" style="stroke: #A80036; stroke-width: 1.5;" width="64" x="185" y="444"/><rect fill="#FEFECE" height="5" style="stroke: #A80036; stroke-width: 1.5;" width="10" x="180" y="449"/><rect fill="#FEFECE" height="5" style="stroke: #A80036; stroke-width: 1.5;" width="10" x="180" y="470.2969"/><text fill="#000000" font-family="sans-serif" font-size="14" lengthAdjust="spacingAndGlyphs" textLength="44" x="195" y="466.9951">SWE.2</text><!--entity SWE.3--><rect fill="#FEFECE" height="36.2969" style="stroke: #A80036; stroke-width: 1.5;" width="64" x="185" y="600"/><rect fill="#FEFECE" height="5" style="stroke: #A80036; stroke-width: 1.5;" width="10" x="180" y="605"/><rect fill="#FEFECE" height="5" style="stroke: #A80036; stroke-width: 1.5;" width="10" x="180" y="626.2969"/><text fill="#000000" font-family="sans-serif" font-size="14" lengthAdjust="spacingAndGlyphs" textLength="44" x="195" y="622.9951">SWE.3</text><!--entity SWE.5--><rect fill="#FEFECE" height="36.2969" style="stroke: #A80036; stroke-width: 1.5;" width="64" x="185" y="852"/><rect fill="#FEFECE" height="5" style="stroke: #A80036; stroke-width: 1.5;" width="10" x="180" y="857"/><rect fill="#FEFECE" height="5" style="stroke: #A80036; stroke-width: 1.5;" width="10" x="180" y="878.2969"/><text fill="#000000" font-family="sans-serif" font-size="14" lengthAdjust="spacingAndGlyphs" textLength="44" x="195" y="874.9951">SWE.5</text><!--entity SWE.6--><rect fill="#FEFECE" height="36.2969" style="stroke: #A80036; stroke-width: 1.5;" width="64" x="185" y="978"/><rect fill="#FEFECE" height="5" style="stroke: #A80036; stroke-width: 1.5;" width="10" x="180" y="983"/><rect fill="#FEFECE" height="5" style="stroke: #A80036; stroke-width: 1.5;" width="10" x="180" y="1004.2969"/><text fill="#000000" font-family="sans-serif" font-size="14" lengthAdjust="spacingAndGlyphs" textLength="44" x="195" y="1000.9951">SWE.6</text><!--entity SWE.4--><rect fill="#FEFECE" height="36.2969" style="stroke: #A80036; stroke-width: 1.5;" width="64" x="185" y="726"/><rect fill="#FEFECE" height="5" style="stroke: #A80036; stroke-width: 1.5;" width="10" x="180" y="731"/><rect fill="#FEFECE" height="5" style="stroke: #A80036; stroke-width: 1.5;" width="10" x="180" y="752.2969"/><text fill="#000000" font-family="sans-serif" font-size="14" lengthAdjust="spacingAndGlyphs" textLength="44" x="195" y="748.9951">SWE.4</text><path d="M388.5,137.5 L388.5,146 L353.484,150 L388.5,154 L388.5,162.6328 A0,0 0 0 0 388.5,162.6328 L505.5,162.6328 A0,0 0 0 0 505.5,162.6328 L505.5,147.5 L495.5,137.5 L388.5,137.5 A0,0 0 0 0 388.5,137.5 " fill="#FBFB77" style="stroke: #A80036; stroke-width: 1.0;"/><path d="M495.5,137.5 L495.5,147.5 L505.5,147.5 L495.5,137.5 " fill="#FBFB77" style="stroke: #A80036; stroke-width: 1.0;"/><text fill="#000000" font-family="sans-serif" font-size="13" lengthAdjust="spacingAndGlyphs" textLength="96" x="394.5" y="154.5669">Sprint Planning</text><path d="M284.5,293.5 L284.5,302 L249.285,306 L284.5,310 L284.5,318.6328 A0,0 0 0 0 284.5,318.6328 L497.5,318.6328 A0,0 0 0 0 497.5,318.6328 L497.5,303.5 L487.5,293.5 L284.5,293.5 A0,0 0 0 0 284.5,293.5 " fill="#FBFB77" style="stroke: #A80036; stroke-width: 1.0;"/><path d="M487.5,293.5 L487.5,303.5 L497.5,303.5 L487.5,293.5 " fill="#FBFB77" style="stroke: #A80036; stroke-width: 1.0;"/><text fill="#000000" font-family="sans-serif" font-size="13" lengthAdjust="spacingAndGlyphs" textLength="192" x="290.5" y="310.5669">SW Requirements Engineering</text><path d="M284.5,449.5 L284.5,458 L249.25,462 L284.5,466 L284.5,474.6328 A0,0 0 0 0 284.5,474.6328 L407.5,474.6328 A0,0 0 0 0 407.5,474.6328 L407.5,459.5 L397.5,449.5 L284.5,449.5 A0,0 0 0 0 284.5,449.5 " fill="#FBFB77" style="stroke: #A80036; stroke-width: 1.0;"/><path d="M397.5,449.5 L397.5,459.5 L407.5,459.5 L397.5,449.5 " fill="#FBFB77" style="stroke: #A80036; stroke-width: 1.0;"/><text fill="#000000" font-family="sans-serif" font-size="13" lengthAdjust="spacingAndGlyphs" textLength="102" x="290.5" y="466.5669">SW Architecture</text><path d="M284,605.5 L284,614 L249.266,618 L284,622 L284,630.6328 A0,0 0 0 0 284,630.6328 L430,630.6328 A0,0 0 0 0 430,630.6328 L430,615.5 L420,605.5 L284,605.5 A0,0 0 0 0 284,605.5 " fill="#FBFB77" style="stroke: #A80036; stroke-width: 1.0;"/><path d="M420,605.5 L420,615.5 L430,615.5 L420,605.5 " fill="#FBFB77" style="stroke: #A80036; stroke-width: 1.0;"/><text fill="#000000" font-family="sans-serif" font-size="13" lengthAdjust="spacingAndGlyphs" textLength="125" x="290" y="622.5669">SW Detailed Design</text><path d="M284,731.5 L284,740 L249.266,744 L284,748 L284,756.6328 A0,0 0 0 0 284,756.6328 L430,756.6328 A0,0 0 0 0 430,756.6328 L430,741.5 L420,731.5 L284,731.5 A0,0 0 0 0 284,731.5 " fill="#FBFB77" style="stroke: #A80036; stroke-width: 1.0;"/><path d="M420,731.5 L420,741.5 L430,741.5 L420,731.5 " fill="#FBFB77" style="stroke: #A80036; stroke-width: 1.0;"/><text fill="#000000" font-family="sans-serif" font-size="13" lengthAdjust="spacingAndGlyphs" textLength="125" x="290" y="748.5669">SW Unit Verification</text><path d="M284,857.5 L284,866 L249.332,870 L284,874 L284,882.6328 A0,0 0 0 0 284,882.6328 L506,882.6328 A0,0 0 0 0 506,882.6328 L506,867.5 L496,857.5 L284,857.5 A0,0 0 0 0 284,857.5 " fill="#FBFB77" style="stroke: #A80036; stroke-width: 1.0;"/><path d="M496,857.5 L496,867.5 L506,867.5 L496,857.5 " fill="#FBFB77" style="stroke: #A80036; stroke-width: 1.0;"/><text fill="#000000" font-family="sans-serif" font-size="13" lengthAdjust="spacingAndGlyphs" textLength="201" x="290" y="874.5669">SW Integration, Integration Test</text><path d="M284,983.5 L284,992 L249.062,996 L284,1000 L284,1008.6328 A0,0 0 0 0 284,1008.6328 L438,1008.6328 A0,0 0 0 0 438,1008.6328 L438,993.5 L428,983.5 L284,983.5 A0,0 0 0 0 284,983.5 " fill="#FBFB77" style="stroke: #A80036; stroke-width: 1.0;"/><path d="M428,983.5 L428,993.5 L438,993.5 L428,983.5 " fill="#FBFB77" style="stroke: #A80036; stroke-width: 1.0;"/><text fill="#000000" font-family="sans-serif" font-size="13" lengthAdjust="spacingAndGlyphs" textLength="133" x="290" y="1000.5669">SW Qualification Test</text><!--link Scrum Team to MAN.3--><path d="M253.883,150 C263.781,150 273.679,150 283.576,150 " fill="none" id="Scrum Team-MAN.3" style="stroke: #A80036; stroke-width: 1.0;"/><polygon fill="#A80036" points="288.752,150,279.752,146,283.752,150,279.752,154,288.752,150" style="stroke: #A80036; stroke-width: 1.0;"/><!--link SWRE to SWE.1--><path d="M149.797,306 C159.782,306 169.767,306 179.752,306 " fill="none" id="SWRE-SWE.1" style="stroke: #A80036; stroke-width: 1.0;"/><polygon fill="#A80036" points="184.974,306,175.974,302,179.974,306,175.974,310,184.974,306" style="stroke: #A80036; stroke-width: 1.0;"/><!--link SWARC to SWE.2--><path d="M149.793,462 C159.779,462 169.764,462 179.75,462 " fill="none" id="SWARC-SWE.2" style="stroke: #A80036; stroke-width: 1.0;"/><polygon fill="#A80036" points="184.972,462,175.972,458,179.972,462,175.972,466,184.972,462" style="stroke: #A80036; stroke-width: 1.0;"/><!--link SWDEV to SWE.3--><path d="M149.793,618 C159.779,618 169.764,618 179.75,618 " fill="none" id="SWDEV-SWE.3" style="stroke: #A80036; stroke-width: 1.0;"/><polygon fill="#A80036" points="184.972,618,175.972,614,179.972,618,175.972,622,184.972,618" style="stroke: #A80036; stroke-width: 1.0;"/><!--link SWTE to SWE.5--><path d="M149.797,870 C159.782,870 169.767,870 179.752,870 " fill="none" id="SWTE-SWE.5" style="stroke: #A80036; stroke-width: 1.0;"/><polygon fill="#A80036" points="184.974,870,175.974,866,179.974,870,175.974,874,184.974,870" style="stroke: #A80036; stroke-width: 1.0;"/><!--link SWTE to SWE.6--><path d="M149.654,904.23 C165.984,926.239 186.924,954.463 201.087,973.552 " fill="none" id="SWTE-SWE.6" style="stroke: #A80036; stroke-width: 1.0;"/><polygon fill="#A80036" points="204.179,977.7196,202.0292,968.1082,201.1999,973.704,195.6042,972.8748,204.179,977.7196" style="stroke: #A80036; stroke-width: 1.0;"/><!--link SWE.1 to SWE.2--><path d="M208.627,324.069 C203.115,352.052 202.809,407.672 207.71,438.722 " fill="none" id="SWE.1-SWE.2" style="stroke: #A80036; stroke-width: 1.0;"/><polygon fill="#A80036" points="208.612,443.854,210.9937,434.2975,207.7465,438.9295,203.1145,435.6823,208.612,443.854" style="stroke: #A80036; stroke-width: 1.0;"/><!--link SWE.1 to SWE.2--><path d="M226.823,329.193 C232.022,360.199 231.708,415.821 225.881,443.854 " fill="none" id="SWE.1-SWE.2-1" style="stroke: #A80036; stroke-width: 1.0;"/><polygon fill="#A80036" points="225.865,324.069,223.5894,333.6514,226.7851,328.9836,231.4528,332.1793,225.865,324.069" style="stroke: #A80036; stroke-width: 1.0;"/><!--link SWE.2 to SWE.3--><path d="M208.627,480.069 C203.115,508.052 202.809,563.672 207.71,594.722 " fill="none" id="SWE.2-SWE.3" style="stroke: #A80036; stroke-width: 1.0;"/><polygon fill="#A80036" points="208.612,599.854,210.9937,590.2975,207.7465,594.9295,203.1145,591.6823,208.612,599.854" style="stroke: #A80036; stroke-width: 1.0;"/><!--link SWE.2 to SWE.3--><path d="M226.823,485.193 C232.022,516.199 231.708,571.821 225.881,599.854 " fill="none" id="SWE.2-SWE.3-1" style="stroke: #A80036; stroke-width: 1.0;"/><polygon fill="#A80036" points="225.865,480.069,223.5894,489.6514,226.7851,484.9836,231.4528,488.1793,225.865,480.069" style="stroke: #A80036; stroke-width: 1.0;"/><!--link SWE.3 to SWE.4--><path d="M207.848,636.242 C203.36,658.359 203.07,696.748 206.98,720.964 " fill="none" id="SWE.3-SWE.4" style="stroke: #A80036; stroke-width: 1.0;"/><polygon fill="#A80036" points="207.878,725.905,210.204,716.3347,206.9838,720.9856,202.333,717.7654,207.878,725.905" style="stroke: #A80036; stroke-width: 1.0;"/><!--link SWE.3 to SWE.4--><path d="M227.637,641.197 C231.757,665.475 231.431,703.859 226.658,725.905 " fill="none" id="SWE.3-SWE.4-1" style="stroke: #A80036; stroke-width: 1.0;"/><polygon fill="#A80036" points="226.69,636.242,224.4504,645.8328,227.6285,641.1531,232.3082,644.3312,226.69,636.242" style="stroke: #A80036; stroke-width: 1.0;"/><!--link SWE.4 to SWE.5--><path d="M207.848,762.242 C203.36,784.359 203.07,822.748 206.98,846.964 " fill="none" id="SWE.4-SWE.5" style="stroke: #A80036; stroke-width: 1.0;"/><polygon fill="#A80036" points="207.878,851.905,210.204,842.3347,206.9838,846.9856,202.333,843.7654,207.878,851.905" style="stroke: #A80036; stroke-width: 1.0;"/><!--link SWE.4 to SWE.5--><path d="M227.637,767.197 C231.757,791.475 231.431,829.859 226.658,851.905 " fill="none" id="SWE.4-SWE.5-1" style="stroke: #A80036; stroke-width: 1.0;"/><polygon fill="#A80036" points="226.69,762.242,224.4504,771.8328,227.6285,767.1531,232.3082,770.3312,226.69,762.242" style="stroke: #A80036; stroke-width: 1.0;"/><!--link SWE.5 to SWE.6--><path d="M207.848,888.242 C203.36,910.359 203.07,948.748 206.98,972.9635 " fill="none" id="SWE.5-SWE.6" style="stroke: #A80036; stroke-width: 1.0;"/><polygon fill="#A80036" points="207.878,977.9048,210.2043,968.3346,206.984,972.9854,202.3332,969.7651,207.878,977.9048" style="stroke: #A80036; stroke-width: 1.0;"/><!--link SWE.5 to SWE.6--><path d="M227.637,893.197 C231.757,917.475 231.431,955.859 226.658,977.9048 " fill="none" id="SWE.5-SWE.6-1" style="stroke: #A80036; stroke-width: 1.0;"/><polygon fill="#A80036" points="226.69,888.242,224.4504,897.8328,227.6285,893.1531,232.3082,896.3312,226.69,888.242" style="stroke: #A80036; stroke-width: 1.0;"/><!--link MAN.3 to SWE.1--><path d="M309.473,168.069 C290.419,196.283 252.392,252.593 231.528,283.487 " fill="none" id="MAN.3-SWE.1" style="stroke: #A80036; stroke-width: 1.0;"/><polygon fill="#A80036" points="228.579,287.854,236.9315,282.6352,231.3778,283.7108,230.3023,278.1571,228.579,287.854" style="stroke: #A80036; stroke-width: 1.0;"/><!--link Developer 1 to Developer 2--><!--link Developer 2 to Developer 3--><!--link Developer 1 to Architect--><!--link Architect to Test Engineer--><!--link Test Engineer to Req. Engineer--><!--link Architect to Quality Assistance--><!--
@startuml
skinparam Shadowing false

package "Scrum Team" {
    :Developer 1:
    :Developer 2:
    :Developer 3:
    :Architect:
    :Test Engineer:
    :Req. Engineer:
    :Quality Assistance:
}

package "Increment 1..m" {
    package "User Story 1..n" {
      actor SWDEV <<Role>>
      actor SWTE <<Role>>
      actor SWARC <<Role>>
      actor SWRE <<Role>>
      actor SWQA <<Role>>
      
      [Scrum Team] -> [MAN.3]
      
      SWRE -> [SWE.1]
      SWARC -> [SWE.2]
      SWDEV -> [SWE.3]
      SWTE -> [SWE.5]
      SWTE -> [SWE.6]

      [SWE.1] - -> [SWE.2]
      [SWE.2] - -> [SWE.3]
      [SWE.3] - -> [SWE.4]
      [SWE.4] - -> [SWE.5]
      [SWE.5] - -> [SWE.6]
      
      [SWE.1] <- - [SWE.2]
      [SWE.2] <- - [SWE.3]
      [SWE.3] <- - [SWE.4]
      [SWE.4] <- - [SWE.5]
      [SWE.5] <- - [SWE.6]
      
      [MAN.3] - -> [SWE.1]
      note right of [MAN.3]
      Sprint Planning
      end note
      note right of [SWE.1]
      SW Requirements Engineering
      end note
      note right of [SWE.2]
      SW Architecture
      end note
      note right of [SWE.3]
      SW Detailed Design
      end note
      note right of [SWE.4]
      SW Unit Verification
      end note
      note right of [SWE.5]
      SW Integration, Integration Test
      end note
      note right of [SWE.6]
      SW Qualification Test
      end note
    }
}

@enduml

PlantUML version 1.2019.05(Sat Apr 20 16:45:36 UTC 2019)
(GPL source distribution)
Java Runtime: OpenJDK Runtime Environment
JVM: OpenJDK 64-Bit Server VM
Java Version: 11.0.2+9
Operating System: Linux
OS Version: 4.15.0-1028-gcp
Default Encoding: UTF-8
Language: en
Country: US
--></g></svg>